<?xml version="1.0" encoding="UTF-8" standalone="no"?>
<!DOCTYPE svg PUBLIC "-//W3C//DTD SVG 1.1//EN" "http://www.w3.org/Graphics/SVG/1.1/DTD/svg11.dtd">
<svg width="100%" height="100%" viewBox="0 0 1601 1601" version="1.1" xmlns="http://www.w3.org/2000/svg" xmlns:xlink="http://www.w3.org/1999/xlink" xml:space="preserve" xmlns:serif="http://www.serif.com/" style="fill-rule:evenodd;clip-rule:evenodd;stroke-linejoin:round;stroke-miterlimit:2;">
    <g transform="matrix(-1.66677,0,0,1.66677,1071.76,-47.1096)">
        <path d="M384.054,420.058C264.744,420.058 168.024,516.778 168.024,636.088C168.024,755.399 264.744,852.119 384.054,852.119C503.364,852.119 600.084,755.399 600.084,636.088C600.084,516.778 503.364,420.058 384.054,420.058" style="fill:white;"/>
    </g>
    <g transform="matrix(-1.66677,0,0,1.66677,2252,-607.224)">
        <path d="M738.103,504.07C569.08,504.07 432.06,638.403 432.06,804.112C432.06,969.82 569.08,1104.15 738.103,1104.15C907.126,1104.15 1044.15,969.82 1044.15,804.112C1044.15,638.403 907.126,504.07 738.103,504.07" style="fill:white;"/>
    </g>
    <g transform="matrix(1.66677,0,0,1.66677,-208.503,-467.197)">
        <path d="M732.102,456.064C877.926,456.064 996.139,574.277 996.139,720.101C996.139,865.924 877.926,984.138 732.102,984.138C666.846,984.138 607.118,960.464 561.04,921.237C545.495,1004.85 472.167,1068.15 384.054,1068.15C284.628,1068.15 204.029,987.549 204.029,888.124C204.029,788.699 284.628,708.099 384.054,708.099C414.455,708.099 443.096,715.635 468.211,728.94C468.114,726.005 468.065,723.059 468.065,720.101C468.065,574.277 586.279,456.064 732.102,456.064" style="fill:rgb(59,51,58);"/>
    </g>
    <g transform="matrix(1.45702,-0.809457,-0.809457,-1.45702,505.113,2406.76)">
        <clipPath id="_clip1">
            <path d="M881.601,960.991C1009.07,890.173 1055,729.427 984.184,601.953C913.366,474.481 752.619,428.553 625.146,499.371C568.102,531.062 527.387,580.764 506.158,637.432C451.965,571.894 357.123,552.168 280.098,594.959C193.184,643.245 161.871,752.844 210.156,839.757C258.441,926.671 368.04,957.985 454.954,909.7C481.529,894.936 502.906,874.439 518.399,850.611C519.739,853.224 521.127,855.823 522.564,858.409C593.382,985.882 754.129,1031.81 881.601,960.991Z"/>
        </clipPath>
        <g clip-path="url(#_clip1)">
            <path d="M143.71,794.295L1132.23,794.295L830.31,275.556L67.939,657.908L143.71,794.295"/>
        </g>
    </g>
    <g transform="matrix(-1.66677,0,0,1.66677,2231.99,-607.224)">
        <path d="M732.102,624.087C632.677,624.087 552.077,704.687 552.077,804.112C552.077,903.537 632.677,984.137 732.102,984.137C831.527,984.137 912.127,903.537 912.127,804.112C912.127,704.687 831.527,624.087 732.102,624.087" style="fill:rgb(207,126,135);"/>
    </g>
    <g transform="matrix(1.45702,-0.809456,-0.809456,-1.45702,667.711,2634.18)">
        <clipPath id="_clip2">
            <path d="M821.785,1054.2C908.698,1005.91 940.012,896.312 891.727,809.398C843.442,722.485 733.842,691.171 646.929,739.456C560.016,787.741 528.702,897.341 576.987,984.254C625.272,1071.17 734.871,1102.48 821.785,1054.2Z"/>
        </clipPath>
        <g clip-path="url(#_clip2)">
            <path d="M455.754,914.312L1444.27,914.312L1142.36,395.573L379.983,777.924L455.754,914.312" style="fill:rgb(188,109,118);"/>
        </g>
    </g>
    <g transform="matrix(-1.66677,0,0,1.66677,1084.12,-59.4688)">
        <path d="M387.761,523.487C323.525,523.487 271.452,575.56 271.452,639.796C271.452,704.032 323.525,756.105 387.761,756.105C451.997,756.105 504.07,704.032 504.07,639.796C504.07,575.56 451.997,523.487 387.761,523.487" style="fill:rgb(207,126,135);"/>
    </g>
    <g transform="matrix(1.45702,-0.809458,-0.809458,-1.45702,389.517,2339.81)">
        <clipPath id="_clip3">
            <path d="M470.17,786.647C526.322,755.451 546.553,684.642 515.357,628.49C484.162,572.338 413.353,552.107 357.2,583.302C301.048,614.498 280.817,685.307 312.013,741.459C343.208,797.612 414.017,817.843 470.17,786.647Z"/>
        </clipPath>
        <g clip-path="url(#_clip3)">
            <path d="M31.525,680.557L1020.04,680.557L718.125,161.818L-44.246,544.17L31.525,680.557" style="fill:rgb(188,109,118);"/>
        </g>
    </g>
    <g transform="matrix(-1.66677,0,0,1.66677,2231.99,-607.224)">
        <path d="M732.101,655.766C650.172,655.766 583.755,722.183 583.755,804.112C583.755,886.042 650.172,952.458 732.101,952.458C814.031,952.458 880.448,886.042 880.448,804.112C880.448,722.183 814.031,655.766 732.101,655.766" style="fill:rgb(161,87,94);"/>
    </g>
    <g transform="matrix(-1.66677,0,0,1.66677,1082.04,-67.1143)">
        <path d="M387.138,552.077C335.814,552.077 294.208,592.377 294.208,642.09C294.208,691.802 335.814,732.102 387.138,732.102C438.461,732.102 480.067,691.802 480.067,642.09C480.067,592.377 438.461,552.077 387.138,552.077" style="fill:rgb(161,87,94);"/>
    </g>
    <g transform="matrix(-1.66677,0,0,1.66677,1071.76,-72.1579)">
        <path d="M384.054,576.08C344.284,576.08 312.044,606.311 312.044,643.602C312.044,680.894 344.284,711.125 384.054,711.125C423.824,711.125 456.064,680.894 456.064,643.602C456.064,606.311 423.824,576.08 384.054,576.08" style="fill:rgb(207,126,135);"/>
    </g>
    <g transform="matrix(-1.66677,0,0,1.66677,1074.26,-70.6612)">
        <path d="M384.804,612.085C368.03,612.085 354.432,625.995 354.432,643.153C354.432,660.312 368.03,674.222 384.804,674.222C401.578,674.222 415.176,660.312 415.176,643.153C415.176,625.995 401.578,612.085 384.804,612.085" style="fill:rgb(161,87,94);"/>
    </g>
    <g transform="matrix(-1.66677,0,0,1.66677,2232,-607.226)">
        <path d="M732.103,677.519C662.187,677.519 605.509,734.197 605.509,804.113C605.509,874.028 662.187,930.706 732.103,930.706C802.018,930.706 858.696,874.028 858.696,804.113C858.696,734.197 802.018,677.519 732.103,677.519" style="fill:rgb(207,126,135);"/>
    </g>
    <g transform="matrix(-1.66677,0,0,1.66677,2231.99,-607.224)">
        <path d="M732.102,756.105C705.588,756.105 684.095,777.599 684.095,804.112C684.095,830.625 705.588,852.119 732.102,852.119C758.615,852.119 780.109,830.625 780.109,804.112C780.109,777.599 758.615,756.105 732.102,756.105" style="fill:rgb(161,87,94);"/>
    </g>
    <g transform="matrix(-1.66677,0,0,1.66677,2292.01,-987.304)">
        <path d="M750.104,864.121C720.277,864.121 696.097,888.301 696.097,918.129C696.097,947.956 720.277,972.136 750.104,972.136C779.932,972.136 804.112,947.956 804.112,918.129C804.112,888.301 779.932,864.121 750.104,864.121" style="fill:white;"/>
    </g>
    <g transform="matrix(-1.66677,0,0,1.66677,1171.78,-267.156)">
        <path d="M414.058,672.094C397.487,672.094 384.054,685.527 384.054,702.098C384.054,718.669 397.487,732.102 414.058,732.102C430.629,732.102 444.062,718.669 444.062,702.098C444.062,685.527 430.629,672.094 414.058,672.094" style="fill:white;"/>
    </g>
    <g transform="matrix(-1.66677,0,0,1.66677,2472.04,-887.282)">
        <path d="M804.112,852.119C784.227,852.119 768.107,868.239 768.107,888.124C768.107,908.009 784.227,924.129 804.112,924.129C823.997,924.129 840.117,908.009 840.117,888.124C840.117,868.239 823.997,852.119 804.112,852.119" style="fill:white;"/>
    </g>
</svg>
