<?xml version="1.0" encoding="UTF-8" standalone="no"?>
<!DOCTYPE svg PUBLIC "-//W3C//DTD SVG 1.1//EN" "http://www.w3.org/Graphics/SVG/1.1/DTD/svg11.dtd">
<svg width="100%" height="100%" viewBox="0 0 1601 1601" version="1.1" xmlns="http://www.w3.org/2000/svg" xmlns:xlink="http://www.w3.org/1999/xlink" xml:space="preserve" xmlns:serif="http://www.serif.com/" style="fill-rule:evenodd;clip-rule:evenodd;stroke-linejoin:round;stroke-miterlimit:2;">
    <g transform="matrix(1.33333,0,0,1.33333,0,784.108)">
        <path d="M42.006,156.022L126.018,156.022C142.588,156.022 156.022,169.456 156.022,186.027L156.022,426.06C156.022,442.631 142.588,456.064 126.018,456.064L42.006,456.064C25.435,456.064 12.002,442.631 12.002,426.06L12.002,186.027C12.002,169.456 25.435,156.022 42.006,156.022" style="fill:white;"/>
    </g>
    <g transform="matrix(1.33333,0,0,1.33333,0,784.108)">
        <path d="M174.024,204.029L246.034,204.029C262.605,204.029 276.039,217.462 276.039,234.033L276.039,378.053C276.039,394.624 262.605,408.057 246.034,408.057L174.024,408.057C157.454,408.057 144.02,394.624 144.02,378.053L144.02,234.033C144.02,217.462 157.454,204.029 174.024,204.029" style="fill:white;"/>
    </g>
    <g transform="matrix(1.33333,0,0,1.33333,0,784.108)">
        <path d="M306.043,132.019L390.054,132.019C406.625,132.019 420.059,145.452 420.059,162.023L420.059,450.063C420.059,466.634 406.625,480.067 390.054,480.067L306.043,480.067C289.472,480.067 276.039,466.634 276.039,450.063L276.039,162.023C276.039,145.452 289.472,132.019 306.043,132.019" style="fill:white;"/>
    </g>
    <g transform="matrix(1.33333,0,0,1.33333,0,720.099)">
        <path d="M426.06,168.024L510.071,168.024C526.642,168.024 540.076,181.458 540.076,198.029L540.076,462.065C540.076,478.636 526.642,492.069 510.071,492.069L426.06,492.069C409.489,492.069 396.055,478.636 396.055,462.065L396.055,198.029C396.055,181.458 409.489,168.024 426.06,168.024" style="fill:white;"/>
    </g>
    <g transform="matrix(1.33333,0,0,1.33333,0,736.103)">
        <path d="M558.078,96.013L642.09,96.013C658.66,96.013 672.094,109.446 672.094,126.017L672.094,522.072C672.094,538.643 658.66,552.077 642.09,552.077L558.078,552.077C541.507,552.077 528.074,538.643 528.074,522.072L528.074,126.017C528.074,109.446 541.507,96.013 558.078,96.013" style="fill:white;"/>
    </g>
    <g transform="matrix(1.33333,0,0,1.33333,0,704.097)">
        <path d="M690.096,156.022L774.108,156.022C790.679,156.022 804.112,169.455 804.112,186.026L804.112,486.068C804.112,502.639 790.679,516.072 774.108,516.072L690.096,516.072C673.526,516.072 660.092,502.639 660.092,486.068L660.092,186.026C660.092,169.455 673.526,156.022 690.096,156.022" style="fill:white;"/>
    </g>
    <g transform="matrix(1.33333,0,0,1.33333,0,768.107)">
        <path d="M810.113,108.015L894.125,108.015C910.696,108.015 924.129,121.448 924.129,138.019L924.129,486.068C924.129,502.639 910.696,516.072 894.125,516.072L810.113,516.072C793.542,516.072 780.109,502.639 780.109,486.068L780.109,138.019C780.109,121.448 793.542,108.015 810.113,108.015" style="fill:white;"/>
    </g>
    <g transform="matrix(1.33333,0,0,1.33333,0,784.108)">
        <path d="M942.132,168.024L1026.14,168.024C1042.71,168.024 1056.15,181.457 1056.15,198.028L1056.15,414.058C1056.15,430.629 1042.71,444.062 1026.14,444.062L942.132,444.062C925.561,444.062 912.127,430.629 912.127,414.058L912.127,198.028C912.127,181.457 925.561,168.024 942.132,168.024" style="fill:white;"/>
    </g>
    <g transform="matrix(1.33333,0,0,1.33333,0,736.101)">
        <path d="M1074.15,240.034L1158.16,240.034C1174.73,240.034 1188.17,253.467 1188.17,270.038L1188.17,378.053C1188.17,394.624 1174.73,408.057 1158.16,408.057L1074.15,408.057C1057.58,408.057 1044.15,394.624 1044.15,378.053L1044.15,270.038C1044.15,253.467 1057.58,240.034 1074.15,240.034" style="fill:white;"/>
    </g>
    <g transform="matrix(-1.33333,0,0,1.33333,1024.14,-96.0133)">
        <path d="M384.054,420.058C264.744,420.058 168.024,516.778 168.024,636.088C168.024,755.399 264.744,852.119 384.054,852.119C503.364,852.119 600.084,755.399 600.084,636.088C600.084,516.778 503.364,420.058 384.054,420.058" style="fill:white;"/>
    </g>
    <g transform="matrix(-1.33333,0,0,1.33333,1968.27,-544.076)">
        <path d="M738.103,504.07C569.08,504.07 432.06,638.403 432.06,804.112C432.06,969.82 569.08,1104.15 738.103,1104.15C907.126,1104.15 1044.15,969.82 1044.15,804.112C1044.15,638.403 907.126,504.07 738.103,504.07" style="fill:white;"/>
    </g>
    <g transform="matrix(1.33333,0,0,1.33333,0,-432.061)">
        <path d="M732.102,456.064C877.926,456.064 996.139,574.277 996.139,720.101C996.139,865.924 877.926,984.138 732.102,984.138C666.846,984.138 607.118,960.464 561.04,921.237C545.495,1004.85 472.167,1068.15 384.054,1068.15C284.628,1068.15 204.029,987.549 204.029,888.124C204.029,788.699 284.628,708.099 384.054,708.099C414.455,708.099 443.096,715.635 468.211,728.94C468.114,726.005 468.065,723.059 468.065,720.101C468.065,574.277 586.279,456.064 732.102,456.064" style="fill:rgb(59,51,58);"/>
    </g>
    <g transform="matrix(1.16554,-0.647524,-0.647524,-1.16554,570.856,1866.96)">
        <clipPath id="_clip1">
            <path d="M881.601,960.991C1009.07,890.173 1055,729.427 984.184,601.953C913.366,474.481 752.619,428.553 625.146,499.371C568.102,531.062 527.387,580.764 506.158,637.432C451.965,571.894 357.123,552.168 280.098,594.959C193.184,643.245 161.871,752.844 210.156,839.757C258.441,926.671 368.04,957.985 454.954,909.7C481.529,894.936 502.906,874.439 518.399,850.611C519.739,853.224 521.127,855.823 522.564,858.409C593.382,985.882 754.129,1031.81 881.601,960.991Z"/>
        </clipPath>
        <g clip-path="url(#_clip1)">
            <path d="M143.71,794.295L1132.23,794.295L830.31,275.556L67.939,657.908L143.71,794.295"/>
        </g>
    </g>
    <g transform="matrix(-1.33333,0,0,1.33333,1952.27,-544.076)">
        <path d="M732.102,624.087C632.677,624.087 552.077,704.687 552.077,804.112C552.077,903.537 632.677,984.137 732.102,984.137C831.527,984.137 912.127,903.537 912.127,804.112C912.127,704.687 831.527,624.087 732.102,624.087" style="fill:rgb(207,126,135);"/>
    </g>
    <g transform="matrix(1.16554,-0.647523,-0.647523,-1.16554,700.926,2048.88)">
        <clipPath id="_clip2">
            <path d="M821.785,1054.2C908.698,1005.91 940.012,896.312 891.727,809.398C843.442,722.485 733.842,691.171 646.929,739.456C560.016,787.741 528.702,897.341 576.987,984.254C625.272,1071.17 734.871,1102.48 821.785,1054.2Z"/>
        </clipPath>
        <g clip-path="url(#_clip2)">
            <path d="M455.754,914.312L1444.27,914.312L1142.36,395.573L379.983,777.924L455.754,914.312" style="fill:rgb(188,109,118);"/>
        </g>
    </g>
    <g transform="matrix(-1.33333,0,0,1.33333,1034.03,-105.9)">
        <path d="M387.761,523.487C323.525,523.487 271.452,575.56 271.452,639.796C271.452,704.032 323.525,756.105 387.761,756.105C451.997,756.105 504.07,704.032 504.07,639.796C504.07,575.56 451.997,523.487 387.761,523.487" style="fill:rgb(207,126,135);"/>
    </g>
    <g transform="matrix(1.16554,-0.647524,-0.647524,-1.16554,478.385,1813.4)">
        <clipPath id="_clip3">
            <path d="M470.17,786.647C526.322,755.451 546.553,684.642 515.357,628.49C484.162,572.338 413.353,552.107 357.2,583.302C301.048,614.498 280.817,685.307 312.013,741.459C343.208,797.612 414.017,817.843 470.17,786.647Z"/>
        </clipPath>
        <g clip-path="url(#_clip3)">
            <path d="M31.525,680.557L1020.04,680.557L718.125,161.818L-44.246,544.17L31.525,680.557" style="fill:rgb(188,109,118);"/>
        </g>
    </g>
    <g transform="matrix(-1.33333,0,0,1.33333,1952.27,-544.076)">
        <path d="M732.101,655.766C650.172,655.766 583.755,722.183 583.755,804.112C583.755,886.042 650.172,952.458 732.101,952.458C814.031,952.458 880.448,886.042 880.448,804.112C880.448,722.183 814.031,655.766 732.101,655.766" style="fill:rgb(161,87,94);"/>
    </g>
    <g transform="matrix(-1.33333,0,0,1.33333,1032.37,-112.016)">
        <path d="M387.138,552.077C335.814,552.077 294.208,592.377 294.208,642.09C294.208,691.802 335.814,732.102 387.138,732.102C438.461,732.102 480.067,691.802 480.067,642.09C480.067,592.377 438.461,552.077 387.138,552.077" style="fill:rgb(161,87,94);"/>
    </g>
    <g transform="matrix(-1.33333,0,0,1.33333,1024.14,-116.051)">
        <path d="M384.054,576.08C344.284,576.08 312.044,606.311 312.044,643.602C312.044,680.894 344.284,711.125 384.054,711.125C423.824,711.125 456.064,680.894 456.064,643.602C456.064,606.311 423.824,576.08 384.054,576.08" style="fill:rgb(207,126,135);"/>
    </g>
    <g transform="matrix(1.33333,0,0,1.33333,0,766.107)">
        <path d="M594.083,145.52L606.085,145.52C622.656,145.52 636.089,158.953 636.089,175.524L636.089,463.564C636.089,480.135 622.656,493.569 606.085,493.569L594.083,493.569C577.512,493.569 564.079,480.135 564.079,463.564L564.079,175.524C564.079,158.953 577.512,145.52 594.083,145.52ZM723.101,184.526L735.103,184.526C751.674,184.526 765.107,197.959 765.107,214.53L765.107,406.557C765.107,423.127 751.674,436.561 735.103,436.561L723.101,436.561C706.53,436.561 693.097,423.127 693.097,406.557L693.097,214.53C693.097,197.959 706.53,184.526 723.101,184.526ZM852.119,132.018L864.121,132.018C880.692,132.018 894.125,145.452 894.125,162.022L894.125,450.063C894.125,466.633 880.692,480.067 864.121,480.067L852.119,480.067C835.548,480.067 822.115,466.633 822.115,450.063L822.115,162.022C822.115,145.452 835.548,132.018 852.119,132.018ZM981.137,206.279L993.139,206.279C1009.71,206.279 1023.14,219.712 1023.14,236.283L1023.14,380.303C1023.14,396.874 1009.71,410.307 993.139,410.307L981.137,410.307C964.566,410.307 951.133,396.874 951.133,380.303L951.133,236.283C951.133,219.712 964.566,206.279 981.137,206.279ZM465.065,215.28L477.067,215.28C493.638,215.28 507.071,228.713 507.071,245.284L507.071,389.304C507.071,405.875 493.638,419.308 477.067,419.308L465.065,419.308C448.494,419.308 435.061,405.875 435.061,389.304L435.061,245.284C435.061,228.713 448.494,215.28 465.065,215.28ZM336.047,183.776L348.049,183.776C364.62,183.776 378.053,197.209 378.053,213.78L378.053,429.81C378.053,446.381 364.62,459.814 348.049,459.814L336.047,459.814C319.476,459.814 306.043,446.381 306.043,429.81L306.043,213.78C306.043,197.209 319.476,183.776 336.047,183.776ZM207.029,249.035L219.031,249.035C235.602,249.035 249.035,262.468 249.035,279.039L249.035,351.049C249.035,367.62 235.602,381.053 219.031,381.053L207.029,381.053C190.458,381.053 177.025,367.62 177.025,351.049L177.025,279.039C177.025,262.468 190.458,249.035 207.029,249.035ZM78.011,186.776L90.013,186.776C106.584,186.776 120.017,200.209 120.017,216.78L120.017,408.807C120.017,425.378 106.584,438.811 90.013,438.811L78.011,438.811C61.44,438.811 48.007,425.378 48.007,408.807L48.007,216.78C48.007,200.209 61.44,186.776 78.011,186.776ZM1110.15,253.535L1122.16,253.535C1138.73,253.535 1152.16,266.969 1152.16,283.539L1152.16,319.544C1152.16,336.115 1138.73,349.549 1122.16,349.549L1110.15,349.549C1093.58,349.549 1080.15,336.115 1080.15,319.544L1080.15,283.539C1080.15,266.969 1093.58,253.535 1110.15,253.535" style="fill:rgb(138,96,157);"/>
    </g>
    <g transform="matrix(1.33333,0,0,1.33333,0,1152.16)">
        <clipPath id="_clip4">
            <path d="M594.083,-144.02L606.085,-144.02C622.656,-144.02 636.089,-130.587 636.089,-114.016L636.089,174.024C636.089,190.595 622.656,204.029 606.085,204.029L594.083,204.029C577.512,204.029 564.079,190.595 564.079,174.024L564.079,-114.016C564.079,-130.587 577.512,-144.02 594.083,-144.02ZM723.101,-105.014L735.103,-105.014C751.674,-105.014 765.107,-91.581 765.107,-75.01L765.107,117.017C765.107,133.587 751.674,147.021 735.103,147.021L723.101,147.021C706.53,147.021 693.097,133.587 693.097,117.017L693.097,-75.01C693.097,-91.581 706.53,-105.014 723.101,-105.014ZM852.119,-157.522L864.121,-157.522C880.692,-157.522 894.125,-144.088 894.125,-127.518L894.125,160.523C894.125,177.093 880.692,190.527 864.121,190.527L852.119,190.527C835.548,190.527 822.115,177.093 822.115,160.523L822.115,-127.518C822.115,-144.088 835.548,-157.522 852.119,-157.522ZM981.137,-83.261L993.139,-83.261C1009.71,-83.261 1023.14,-69.828 1023.14,-53.257L1023.14,90.763C1023.14,107.334 1009.71,120.767 993.139,120.767L981.137,120.767C964.566,120.767 951.133,107.334 951.133,90.763L951.133,-53.257C951.133,-69.828 964.566,-83.261 981.137,-83.261ZM465.065,-74.26L477.067,-74.26C493.638,-74.26 507.071,-60.827 507.071,-44.256L507.071,99.764C507.071,116.335 493.638,129.768 477.067,129.768L465.065,129.768C448.494,129.768 435.061,116.335 435.061,99.764L435.061,-44.256C435.061,-60.827 448.494,-74.26 465.065,-74.26ZM336.047,-105.764L348.049,-105.764C364.62,-105.764 378.053,-92.331 378.053,-75.76L378.053,140.27C378.053,156.841 364.62,170.274 348.049,170.274L336.047,170.274C319.476,170.274 306.043,156.841 306.043,140.27L306.043,-75.76C306.043,-92.331 319.476,-105.764 336.047,-105.764ZM207.029,-40.505L219.031,-40.505C235.602,-40.505 249.035,-27.072 249.035,-10.501L249.035,61.509C249.035,78.08 235.602,91.513 219.031,91.513L207.029,91.513C190.458,91.513 177.025,78.08 177.025,61.509L177.025,-10.501C177.025,-27.072 190.458,-40.505 207.029,-40.505ZM78.011,-102.764L90.013,-102.764C106.584,-102.764 120.017,-89.331 120.017,-72.76L120.017,119.267C120.017,135.838 106.584,149.271 90.013,149.271L78.011,149.271C61.44,149.271 48.007,135.838 48.007,119.267L48.007,-72.76C48.007,-89.331 61.44,-102.764 78.011,-102.764ZM1110.15,-36.005L1122.16,-36.005C1138.73,-36.005 1152.16,-22.571 1152.16,-6.001L1152.16,30.004C1152.16,46.575 1138.73,60.009 1122.16,60.009L1110.15,60.009C1093.58,60.009 1080.15,46.575 1080.15,30.004L1080.15,-6.001C1080.15,-22.571 1093.58,-36.005 1110.15,-36.005Z"/>
        </clipPath>
        <g clip-path="url(#_clip4)">
            <path d="M0,12.002L1200.17,12.002L1200.17,324.045L0,324.045L0,12.002" style="fill:rgb(138,96,157);"/>
        </g>
    </g>
    <g transform="matrix(-1.33333,0,0,1.33333,1026.14,-114.853)">
        <path d="M384.804,612.085C368.03,612.085 354.432,625.995 354.432,643.153C354.432,660.312 368.03,674.222 384.804,674.222C401.578,674.222 415.176,660.312 415.176,643.153C415.176,625.995 401.578,612.085 384.804,612.085" style="fill:rgb(161,87,94);"/>
    </g>
    <g transform="matrix(-1.33333,0,0,1.33333,1952.27,-544.077)">
        <path d="M732.103,677.519C662.187,677.519 605.509,734.197 605.509,804.113C605.509,874.028 662.187,930.706 732.103,930.706C802.018,930.706 858.696,874.028 858.696,804.113C858.696,734.197 802.018,677.519 732.103,677.519" style="fill:rgb(207,126,135);"/>
    </g>
    <g transform="matrix(-1.33333,0,0,1.33333,1952.27,-544.076)">
        <path d="M732.102,756.105C705.588,756.105 684.095,777.599 684.095,804.112C684.095,830.625 705.588,852.119 732.102,852.119C758.615,852.119 780.109,830.625 780.109,804.112C780.109,777.599 758.615,756.105 732.102,756.105" style="fill:rgb(161,87,94);"/>
    </g>
    <g transform="matrix(-1.33333,0,0,1.33333,2000.28,-848.12)">
        <path d="M750.104,864.121C720.277,864.121 696.097,888.301 696.097,918.129C696.097,947.956 720.277,972.136 750.104,972.136C779.932,972.136 804.112,947.956 804.112,918.129C804.112,888.301 779.932,864.121 750.104,864.121" style="fill:white;"/>
    </g>
    <g transform="matrix(-1.33333,0,0,1.33333,1104.15,-272.039)">
        <path d="M414.058,672.094C397.487,672.094 384.054,685.527 384.054,702.098C384.054,718.669 397.487,732.102 414.058,732.102C430.629,732.102 444.062,718.669 444.062,702.098C444.062,685.527 430.629,672.094 414.058,672.094" style="fill:white;"/>
    </g>
    <g transform="matrix(-1.33333,0,0,1.33333,2144.3,-768.108)">
        <path d="M804.112,852.119C784.227,852.119 768.107,868.239 768.107,888.124C768.107,908.009 784.227,924.129 804.112,924.129C823.997,924.129 840.117,908.009 840.117,888.124C840.117,868.239 823.997,852.119 804.112,852.119" style="fill:white;"/>
    </g>
</svg>
